<svg xmlns="http://www.w3.org/2000/svg" xml:space="preserve" width="200" height="29.858"><path fill="#006595" fill-rule="evenodd" d="M112.418 22.203h-9.805c-.793 1.974-1.509 3.941-2.279 5.959-.273.722-.523 1.468-1.404 1.649-.26.051-.601.02-.934.02h-.936c-.681 0-1.33.055-1.893 0a1.56 1.56 0 0 1-1.323-1.016 1.3 1.3 0 0 1-.08-.368c-.005-.229.171-.582.284-.896 1.582-4.348 3.12-8.64 4.719-12.976 1.58-4.281 3.172-8.628 4.742-12.96.105-.298.188-.601.323-.834.271-.462.692-.743 1.385-.753 1.166-.019 2.309 0 3.478 0 .451 0 .925-.048 1.323 0 .511.061.929.44 1.118.772.139.244.217.553.326.855 2.804 7.776 5.676 15.508 8.502 23.293.3.823.608 1.703.936 2.603.107.294.302.648.305.853.002.062-.046.235-.081.348-.141.47-.448.828-.996.995-.485.152-1.305.104-1.892.104-.716 0-1.391.021-1.994-.02a1.5 1.5 0 0 1-1.22-.753c-.151-.254-.239-.562-.347-.854a484 484 0 0 0-1.606-4.315c-.214-.566-.399-1.032-.651-1.706m-7.73-5.474h5.676a530 530 0 0 0-2.808-7.506c-.955 2.502-1.911 5.007-2.868 7.506m33.892 2.117c.02.12.126.225.223.346 1.317 1.688 2.658 3.339 4.026 5.043.688.858 1.442 1.773 2.159 2.688.347.447.835.914.69 1.688a1.51 1.51 0 0 1-1.221 1.202c-.433.078-.948.02-1.446.02h-1.463c-.821 0-2.126.129-2.686-.227-.211-.131-.359-.344-.55-.585-1.142-1.458-2.363-2.948-3.498-4.377-1.167-1.468-2.339-2.91-3.519-4.371-.161-.2-.279-.44-.488-.591v7.871c0 .374.047.771-.022 1.098a1.55 1.55 0 0 1-1.341 1.182c-.547.055-1.225 0-1.893 0-.661 0-1.353.046-1.872-.02-.705-.094-1.138-.55-1.281-1.12-.114-.451-.06-1.072-.06-1.689V2.756c0-.606-.05-1.223.08-1.648.118-.389.332-.648.61-.833.561-.374 1.643-.245 2.604-.245h6.61c.906 0 1.724-.01 2.483.103 2.209.327 3.851 1.25 5.207 2.501 1.719 1.585 3.071 3.967 3.071 7.222 0 1.574-.43 2.979-.997 4.152-1.111 2.304-2.95 3.888-5.426 4.838m-7.631-13.183v8.118h2.95c1.075 0 1.742-.18 2.4-.57 1.152-.68 2.165-1.969 2.014-3.907a3.96 3.96 0 0 0-.752-1.993 4.07 4.07 0 0 0-2.522-1.628c-1.228-.243-2.664.014-4.067-.082-.026.005-.024.034-.023.062M14.125.048c4.222-.202 7.461 1.216 9.824 3.031.167.129.355.259.468.388.363.411.467 1.161.185 1.708-.161.306-.414.535-.653.772-.48.481-.95.912-1.445 1.404-.252.254-.466.524-.731.691-.395.252-1.058.315-1.525.082-.168-.083-.298-.224-.448-.325a8.6 8.6 0 0 0-3.905-1.465 8.9 8.9 0 0 0-5.065.937 8.45 8.45 0 0 0-3.214 2.91c-.79 1.21-1.445 2.734-1.445 4.678 0 1.995.687 3.503 1.465 4.678.799 1.21 1.88 2.22 3.233 2.893 1.271.625 3.069 1.16 5.086.914 1.37-.168 2.442-.61 3.417-1.183.305-.176.571-.442.916-.608a1.55 1.55 0 0 1 1.424.061c.288.167.488.409.732.652.434.432.964.923 1.404 1.362.323.323.671.596.833 1.035.206.552.05 1.191-.264 1.548-.156.178-.41.359-.61.508a15.3 15.3 0 0 1-5.33 2.504c-2.548.63-5.421.534-7.871-.186a14.3 14.3 0 0 1-5.717-3.231C2.607 23.706.767 20.894.17 17.099a14.6 14.6 0 0 1-.042-4.151c.348-2.609 1.264-4.708 2.484-6.469 1.291-1.87 2.782-3.22 4.617-4.334A14.6 14.6 0 0 1 13.046.132c.359-.046.726-.066 1.079-.084m26.241 0c2.378-.113 4.646.343 6.388 1.058a15 15 0 0 1 4.537 2.911c1.335 1.24 2.314 2.564 3.172 4.27.834 1.661 1.42 3.632 1.546 5.902a14.7 14.7 0 0 1-1.057 6.347c-.717 1.786-1.744 3.271-2.909 4.535a14.7 14.7 0 0 1-4.253 3.193c-1.66.841-3.599 1.414-5.899 1.548-2.352.131-4.57-.355-6.345-1.06a14.5 14.5 0 0 1-4.559-2.889 14.9 14.9 0 0 1-3.192-4.251c-.842-1.67-1.414-3.604-1.547-5.898-.146-2.471.362-4.616 1.057-6.347.741-1.851 1.677-3.234 2.889-4.559A14.7 14.7 0 0 1 37.11.557a14 14 0 0 1 1.545-.326 16 16 0 0 1 1.711-.183M38.88 6.557c-1.742.466-3.033 1.365-4.088 2.441-.748.763-1.283 1.562-1.729 2.626-.417.993-.735 2.31-.671 3.683.123 2.65 1.271 4.643 2.704 6 1.479 1.396 3.519 2.448 6.287 2.38a8.44 8.44 0 0 0 6.021-2.684c1.352-1.465 2.497-3.465 2.4-6.267a8.9 8.9 0 0 0-.835-3.519 8.4 8.4 0 0 0-1.83-2.525c-1.398-1.321-3.568-2.53-6.307-2.4-.688.035-1.345.103-1.952.265m35.396 8.342c.894-2.277 1.742-4.625 2.625-7.019.743-2.017 1.526-4.074 2.299-6.124.111-.295.185-.622.325-.874.21-.38.573-.702 1.018-.815.3-.076.716-.041 1.138-.041h2.34c.401 0 .815-.047 1.141.02.493.103.989.541 1.139 1.058.076.266.072.583.121.875 1.451 8.646 2.923 17.313 4.354 26.017.025.156.091.351.059.449-.063.202-.062.385-.14.548-.185.386-.593.77-1.181.836-.541.061-1.181 0-1.832 0-.633 0-1.291.048-1.829 0a1.6 1.6 0 0 1-1.12-.651c-.121-.178-.151-.386-.285-.61-.763-5.027-1.575-10.006-2.34-15.034-1.92 4.635-3.905 9.475-5.838 14.221-.33.812-.619 1.645-1.423 1.951-.224.087-.45.17-.773.124-.093-.013-.192-.07-.286-.105-.968-.332-1.25-1.246-1.626-2.174-1.909-4.683-3.831-9.343-5.718-14.017-.109.354-.126.729-.183 1.08-.701 4.466-1.44 9.036-2.135 13.528-.023.14-.025.259-.061.406-.011.04-.026.057-.042.1-.224.647-.637 1.103-1.322 1.182-.48.053-1.053 0-1.605 0-1.075 0-2.255.17-2.87-.349-.286-.237-.532-.595-.548-1.035-.008-.244.091-.551.143-.855 1.431-8.521 2.838-17.014 4.271-25.551.049-.286.056-.579.121-.854.145-.602.663-1.092 1.262-1.159.394-.043.829 0 1.241 0h1.221c.751 0 1.789-.092 2.299.144.335.152.62.427.795.772.132.266.214.582.325.875 1.615 4.29 3.329 8.814 4.92 13.081M162.338.048s.008-.02.022-.02c3.554-.169 6.353.849 8.543 2.196.338.21.713.449 1.077.713.353.255.717.556.874.896.143.302.183.836.042 1.202-.122.311-.411.591-.671.851-.494.496-1.023.984-1.525 1.486-.436.437-.88 1.032-1.771.895a1.5 1.5 0 0 1-.59-.224c-.085-.052-.142-.125-.225-.181-.063-.048-.15-.077-.224-.124-.953-.611-2.101-1.158-3.438-1.363-2.053-.313-3.928.16-5.331.854a8.36 8.36 0 0 0-3.355 3.032c-.789 1.239-1.491 2.915-1.383 4.924a8.66 8.66 0 0 0 1.688 4.699c.893 1.211 2.091 2.161 3.579 2.808a9.2 9.2 0 0 0 2.523.671c1.085.119 2.054-.003 2.909-.204a9 9 0 0 0 2.807-1.201c.162-.102.305-.227.469-.323a1.51 1.51 0 0 1 1.707.081c.484.372.864.886 1.345 1.321.463.421.99.829 1.321 1.322.351.523.312 1.382-.103 1.852-.172.195-.41.323-.63.489a14.7 14.7 0 0 1-5.309 2.522c-1.247.301-2.613.485-4.009.424-1.344-.058-2.654-.242-3.864-.609-2.328-.705-4.079-1.771-5.716-3.231-2.297-2.049-4.102-4.92-4.72-8.707a14.6 14.6 0 0 1-.062-4.171 14.55 14.55 0 0 1 2.502-6.449 14.6 14.6 0 0 1 4.618-4.334 14.85 14.85 0 0 1 5.817-2.013c.373-.049.74-.068 1.083-.084m20.607 12.391c3.479.045 7.047.005 10.559.02V3.466c0-.978-.132-2.152.242-2.747.254-.401.688-.692 1.385-.692h2.074c.623 0 1.461-.09 1.932.144.455.222.796.665.835 1.239.047.69 0 1.398 0 2.117v23.069c0 .749.085 1.502-.041 2.053a1.44 1.44 0 0 1-.997 1.098c-.515.171-1.314.084-2.013.084-.74 0-1.478.055-2.076-.02-.696-.094-1.167-.566-1.301-1.181-.087-.396-.04-.868-.04-1.323v-9.458c-3.479-.048-7.045-.007-10.559-.021v9.58c0 .449.043.934-.062 1.303-.149.534-.52.933-1.119 1.079-.331.079-.68.041-1.058.041h-2.177c-.369 0-.7.016-.996-.084-.462-.151-.917-.517-1.038-1.138-.093-.481-.021-1.128-.021-1.709V2.856c0-.601-.064-1.224.041-1.669.142-.593.654-1.092 1.282-1.159.564-.062 1.249 0 1.893 0 .667 0 1.339-.051 1.892 0a1.52 1.52 0 0 1 1.342 1.22c.078.401.021.912.021 1.384z" clip-rule="evenodd"/></svg>