<svg xmlns="http://www.w3.org/2000/svg" xml:space="preserve" width="501.05" height="495.049"><g fill="#0085C3" fill-rule="evenodd" clip-rule="evenodd"><path d="M241.281 15.478h14.379C325.601 19.422 375.468 45.98 412.44 83.2s64.301 86.31 67.953 156.548v13.915c-3.551 71.361-31.363 118.459-67.953 156.78-38.436 36.401-85.688 63.979-157.012 67.489h-14.147c-69.932-3.953-119.809-30.499-156.78-67.721C47.53 372.99 20.2 323.901 16.548 253.663v-13.915c.181-.051.27-.194.232-.464 3.497-69.97 30.976-119.57 67.722-156.316 36.915-36.917 87.299-63.665 156.779-67.49m-45.457 33.165c-13.78 3.69-26.138 8.376-37.339 13.915-34.094 16.859-62.21 40.979-81.869 71.896-19.189 30.178-35.802 68.999-33.397 119.904 1.517 32.093 8.84 59.089 20.409 82.101 22.844 45.437 57.625 78.916 105.757 99.264 23.802 10.061 53.295 17.12 86.507 15.538 31.858-1.517 59.462-8.678 82.333-20.177 44.824-22.538 80.15-57.312 99.728-105.293 9.902-24.271 17.389-52.309 15.77-86.276-3.064-64.343-29.237-107.971-63.778-141.241-17.091-16.462-37.671-30.465-61.923-40.586-23.531-9.82-54.164-17.101-86.972-15.539-16.127.768-31.342 2.776-45.226 6.494"/><path d="M227.134 186.637c7.348 4.866 14.865 9.565 21.801 14.843-15.671 9.84-31.034 19.989-46.616 29.918 2.366 1.809 5.056 3.293 7.421 5.102 15.712-9.954 31.429-19.902 47.081-29.918 7.019 4.345 13.931 8.798 20.41 13.684-15.683 9.906-30.842 20.336-46.385 30.382 2.303 1.872 5.126 3.223 7.653 4.87 16.065-9.832 31.73-20.066 47.544-30.149v-32.934h34.789v65.635c9.817.541 20.641.077 30.846.231v30.846h-65.635v-31.31c-19.285 11.716-39.046 24.965-58.445 37.34-20.201-13.118-39.67-26.97-59.836-40.122-5.841 18.516-19.716 32.447-42.674 34.092-14.319 1.025-30.588-.764-47.081 0v-96.712c20.619 1.366 43.258-2.757 59.604 2.319 14.453 4.489 24.7 16.021 29.454 30.382 20.182-12.675 40.039-25.672 60.069-38.499m-115.962 36.876v34.788c8.287.041 14.589.522 19.481-3.246 7.277-5.606 8.743-19.5 2.319-26.904-4.287-4.94-11.525-5.977-21.569-5.334-.269.039-.251.367-.231.696m249.55-31.078h34.788v65.866h30.614v30.846h-65.635v-96.016c-.019-.329-.038-.657.233-.696"/></g></svg>