<svg xmlns="http://www.w3.org/2000/svg" width="120" height="60"><path fill="#ea4335" d="m64.87 11.572 1.144.02 3.108-3.108.15-1.317a13.92 13.92 0 0 0-9.277-3.534c-6.44 0-11.876 4.382-13.486 10.318.34-.237 1.065-.06 1.065-.06l6.212-1.022s.32-.53.48-.497a7.76 7.76 0 0 1 10.605-.8z"/><path fill="#4285f4" d="M73.5 13.962a14 14 0 0 0-4.216-6.796l-4.402 4.402a7.75 7.75 0 0 1 2.895 6.039v.777c2.142 0 3.88 1.743 3.88 3.88s-1.743 3.88-3.88 3.88h-7.762l-.777.78v4.658l.777.773h7.762a10.11 10.11 0 0 0 10.083-10.09 10.1 10.1 0 0 0-4.37-8.303z"/><path fill="#34a853" d="M52.234 32.362h7.76V26.15h-7.76a3.8 3.8 0 0 1-1.597-.347l-1.12.343-3.108 3.108-.272 1.05a9.96 9.96 0 0 0 6.098 2.06z"/><path fill="#fbbc05" d="M52.234 12.175A10.11 10.11 0 0 0 42.14 22.269a10.08 10.08 0 0 0 4 8.04l4.5-4.5a3.88 3.88 0 0 1-2.288-3.538 3.884 3.884 0 0 1 3.88-3.88 3.89 3.89 0 0 1 3.538 2.288l4.5-4.5c-1.846-2.43-4.76-4-8.04-4z"/><path fill="#5f6368" d="M12 51.937c-2.12 0-3.94-.75-5.474-2.25s-2.3-3.304-2.3-5.408.765-3.908 2.3-5.408S9.883 36.62 12 36.62a7.32 7.32 0 0 1 5.249 2.11l-1.477 1.477a5.32 5.32 0 0 0-3.773-1.495q-2.296-.002-3.896 1.627a5.4 5.4 0 0 0-1.597 3.941q-.002 2.317 1.597 3.94a5.25 5.25 0 0 0 3.896 1.627c1.558 0 2.845-.5 3.87-1.534.6-.6 1-1.5 1.14-2.635h-5.006v-2.092h7.044c.075.372.1.8.1 1.3q.001 3.083-1.813 4.895c-1.372 1.435-3.15 2.15-5.345 2.15zm16.37-1.4c-.96.94-2.13 1.4-3.512 1.4s-2.554-.47-3.512-1.4-1.438-2.113-1.438-3.52.48-2.58 1.438-3.52 2.13-1.4 3.512-1.4 2.554.47 3.512 1.4 1.438 2.116 1.438 3.52-.48 2.58-1.438 3.52m-5.474-1.38a2.63 2.63 0 0 0 1.963.849q1.14.001 1.963-.85c.823-.851.822-1.28.822-2.14q0-1.306-.813-2.15c-.813-.844-1.198-.84-1.972-.84a2.64 2.64 0 0 0-1.972.84q-.814.84-.813 2.15 0 1.288.822 2.14zm16.273 1.38c-.96.94-2.13 1.4-3.512 1.4s-2.554-.47-3.512-1.4-1.438-2.113-1.438-3.52.48-2.58 1.438-3.52 2.13-1.4 3.512-1.4 2.554.47 3.512 1.4 1.438 2.116 1.438 3.52-.48 2.58-1.438 3.52m-5.474-1.38a2.63 2.63 0 0 0 1.963.849q1.14.001 1.963-.85c.823-.851.822-1.28.822-2.14q0-1.306-.813-2.15c-.813-.844-1.198-.84-1.972-.84a2.64 2.64 0 0 0-1.972.84q-.814.84-.813 2.15 0 1.288.822 2.14zm12.573 7.22q-1.643 0-2.764-.88c-1.121-.88-1.282-1.264-1.606-2.038l1.888-.783c.198.474.5.885.933 1.234s.94.522 1.552.522q1.234 0 1.933-.747c.699-.747.7-1.216.7-2.15v-.7h-.075c-.6.747-1.477 1.122-2.596 1.122q-1.887 0-3.307-1.438a4.76 4.76 0 0 1-1.42-3.476 4.82 4.82 0 0 1 1.42-3.503q1.42-1.446 3.307-1.447.84 0 1.522.318c.682.318.813.474 1.074.783h.075V42.4h2.056v8.857q.001 2.578-1.318 3.86c-.88.85-2.002 1.28-3.373 1.28zm.15-6.372a2.41 2.41 0 0 0 1.879-.849q.756-.85.756-2.122 0-1.288-.756-2.15a2.4 2.4 0 0 0-1.879-.858q-1.14.002-1.942.858c-.802.856-.804 1.288-.804 2.15q0 1.27.804 2.122c.804.852 1.183.85 1.942.85zM54.62 37.14v14.5h-2.167v-14.5zm5.94 14.796q-2.094 0-3.494-1.42c-1.4-1.42-1.402-2.116-1.402-3.512 0-1.444.45-2.63 1.354-3.55a4.45 4.45 0 0 1 3.298-1.384q.897 0 1.663.327a3.9 3.9 0 0 1 1.27.84 6 6 0 0 1 .804.999 6 6 0 0 1 .486.972l.225.56L58.17 48.5q.752 1.494 2.392 1.495 1.495.001 2.428-1.363l1.68 1.122q-.562.84-1.588 1.513c-1.026.673-1.528.67-2.524.67zm-2.746-5.08 4.4-1.83c-.126-.312-.354-.564-.7-.756a2.26 2.26 0 0 0-1.14-.288q-.954 0-1.783.783c-.829.783-.82 1.222-.795 2.092zm18.33 5.08q-2.955 0-4.952-2c-1.997-2-2-2.995-2-4.988s.666-3.656 2-4.988 2.983-2 4.952-2q3.026.001 4.913 2.185l-1.195 1.16c-.9-1.134-2.15-1.7-3.72-1.7-1.46 0-2.686.492-3.7 1.477s-1.504 2.272-1.504 3.866.5 2.884 1.504 3.87 2.233 1.477 3.7 1.477c1.606 0 2.977-.648 4.1-1.942l1.195 1.195a6.5 6.5 0 0 1-2.3 1.747 7 7 0 0 1-3.004.642zm8.556-.296h-1.72V38.263h1.72zm2.803-8.06c.885-.927 2-1.393 3.382-1.393s2.497.465 3.382 1.393 1.327 2.1 1.327 3.485-.44 2.557-1.327 3.485-2 1.393-3.382 1.393-2.497-.465-3.382-1.393-1.327-2.1-1.327-3.485.44-2.557 1.327-3.485m1.28 5.883c.6.603 1.294.906 2.1.906s1.5-.303 2.1-.906.888-1.405.888-2.4-.297-1.798-.888-2.4-1.294-.906-2.1-.906-1.5.303-2.1.906-.888 1.405-.888 2.4.297 1.798.888 2.4m16.32 2.177h-1.645v-1.27h-.075c-.26.435-.66.807-1.195 1.1s-1.1.46-1.7.46q-1.72 0-2.605-1.047c-.885-1.047-.888-1.633-.888-2.803v-5.606h1.72v5.324q0 2.561 2.26 2.56a2.1 2.1 0 0 0 1.738-.858 3.13 3.13 0 0 0 .672-1.981v-5.045h1.72v9.157zm5.828.297q-1.776 0-3.064-1.402c-1.288-1.402-1.288-2.092-1.288-3.476s.43-2.542 1.288-3.476 1.882-1.402 3.064-1.402q1.045 0 1.88.447c.835.447.97.672 1.243 1.122h.075l-.075-1.27v-4.22h1.72v13.38h-1.645v-1.27h-.075q-.41.671-1.243 1.122-.834.442-1.88.444zm.28-1.57a2.74 2.74 0 0 0 2.065-.897c.567-.597.85-1.402.85-2.4s-.282-1.813-.85-2.4a2.74 2.74 0 0 0-2.065-.897q-1.197 0-2.056.906c-.859.906-.858 1.405-.858 2.4s.285 1.798.858 2.4a2.73 2.73 0 0 0 2.056.906z"/></svg>