<svg xmlns="http://www.w3.org/2000/svg" width="1200" height="800" viewBox="-21.215 -26.742 183.867 160.451"><defs><clipPath id="a" clipPathUnits="userSpaceOnUse"><path d="M6.998 7.392h109.08v89.063H6.998z"/></clipPath><clipPath id="b" clipPathUnits="userSpaceOnUse"><path d="M61.723 52.808c-3.456.157-6.115 1.034-8.175 2.303 1.395-6.055 6.612-9.029 6.864-9.17l1.538-.848c11.768.786 18.656 8.383 18.656 18.317v2.153c-2.797-9.126-9.307-13.186-18.883-12.755"/></clipPath><clipPath id="d" clipPathUnits="userSpaceOnUse"><path d="M6.998 7.392h109.08v89.063H6.998z"/></clipPath><linearGradient id="c" x1="0" x2="1" y1="0" y2="0" gradientTransform="translate(53.548 55.328)scale(27.057)" gradientUnits="userSpaceOnUse" spreadMethod="pad"><stop offset="0" stop-color="#656263"/><stop offset="1" stop-color="#a7a5a6"/></linearGradient></defs><g clip-path="url(#a)" transform="matrix(1.33333 0 0 -1.33333 -10.922 122.147)"><path fill="#0d0d0d" d="m79.602 65.87 1.004 3.276v22.437c-11.734 0-12.956-4.5-12.956-8.796v-24.64c0-1.276-.124-2.63-.382-3.956 6.222 1.133 10.281 4.979 12.334 11.68"/><path fill="#39a2e1" d="M49.566 86.46h-2.593v2.561h2.593zm2.59-3.87h-2.59v2.563h2.59zm-2.605-3.223h-2.563v2.562h2.563zm-2.591-3.842h-2.562v2.562h2.562zm-5.168 13.496h-2.59v2.589h2.59z"/><path fill="#39a2e1" d="M44.385 72.965h2.587v-5.707h2.594v9.548h2.59v-18.66c0-8.854 7.75-13.125 7.75-13.125-13.018 0-20.704 7.89-20.704 18.39v21.114h2.59V70.403h2.593z"/></g><g clip-path="url(#b)" transform="matrix(1.33333 0 0 -1.33333 -10.922 122.147)"><path fill="url(#c)" d="M61.723 52.808c-3.456.157-6.115 1.034-8.175 2.303 1.395-6.055 6.612-9.029 6.864-9.17l1.538-.848c11.768.786 18.656 8.383 18.656 18.317v2.153c-2.797-9.126-9.307-13.186-18.883-12.755"/></g><path fill="#39a2e1" d="M51.688 10.317h-3.413V6.901h3.413z"/><g fill="#4f4c4d" clip-path="url(#d)" transform="matrix(1.33333 0 0 -1.33333 -10.922 122.147)"><path d="M74.624 21.842c-2.232 0-3.973.618-5.173 1.84-1.227 1.246-1.832 3.051-1.796 5.366l-.001 10.806h.023c.598 0 2.553-.142 2.553-1.97l.001-9.404c.068-2.792 1.669-4.39 4.393-4.39s4.324 1.6 4.391 4.392v9.402c0 1.828 1.956 1.97 2.556 1.97h.022l-.003-10.808c.038-2.313-.566-4.118-1.794-5.365-1.202-1.22-2.942-1.839-5.172-1.839m-59.464 0c-2.233 0-3.973.618-5.173 1.84-1.228 1.246-1.831 3.051-1.793 5.366l.035 10.806h.022c.599 0 2.554-.142 2.554-1.97l-.036-9.404c.067-2.792 1.667-4.39 4.39-4.39 2.726 0 4.326 1.6 4.393 4.392l.038 9.402c0 1.828 1.956 1.97 2.555 1.97h.022l-.04-10.808c.038-2.313-.567-4.118-1.794-5.365-1.201-1.22-2.943-1.839-5.173-1.839m41.179 2.248c-4.375 0-5.028 4.212-5.028 6.724 0 2.022.488 6.803 5.028 6.803 4.374 0 5.028-4.292 5.028-6.803 0-2.022-.491-6.725-5.028-6.725m9.879-1.894c0 .272-.042 1.181-.56 1.728q-.414.433-1.101.434h-3.01c1.62 1.58 2.514 3.861 2.514 6.457 0 4.336-2.03 9.048-7.722 9.048s-7.721-4.712-7.721-9.048c0-4.335 2.026-8.968 7.71-8.972l.016.002c.437.02.89.067 1.35.14.275.031.569.083.852.132l.449.08zm19.76-.184-.002 15.872c0 1.83 1.955 1.971 2.554 1.971h.023v-17.55a.293.293 0 0 0-.292-.293zM42.67 21.95l-.003 15.934c0 1.828 1.956 1.97 2.555 1.97h.023v-17.61a.293.293 0 0 0-.292-.293zm63.774.061v15.916c0 1.83 1.949 1.971 2.549 1.971h.023V22.304a.293.293 0 0 0-.292-.293zM91.088 39.81v-2.246h5.267V22.01h2.282c.158 0 .289.13.293.286v15.268h4.798c.157 0 .288.13.29.285v1.961z"/><path d="M91.13 39.81v-2.246h5.268V22.01h2.283c.158 0 .288.13.29.286v15.268h4.8c.158 0 .289.13.292.285v1.961zM33.35 24.265h-4.1V30.1h3.827c1.201 0 3.215-.495 3.215-2.922 0-2.251-1.733-2.856-2.943-2.914m2.25 10.67c0-.945-.29-1.724-.887-2.108-.424-.277-1.016-.428-1.834-.474h-3.803v5.175h3.657c2.054-.08 2.866-.92 2.866-2.592m.298-3.71-.22.067.211.092c1.482.644 2.404 2.148 2.404 3.716 0 2.886-2.043 4.672-5.602 4.672H26.5v-17.76h6.188q.259-.005.522-.005c.713 0 1.636.04 2.44.343 1.95.718 3.16 2.468 3.16 4.358 0 1.625-.763 3.88-2.913 4.519M8.543 16.664h.952l2.355-3.8h.014v3.8h.86v-5.157h-.954l-2.347 3.792h-.022v-3.792h-.858zm13.881 0h3.713v-.78h-2.81v-1.351h2.6v-.736h-2.6v-1.509h2.86v-.781h-3.763zm12.788 0h4.176v-.78h-1.64v-4.377h-.903v4.377h-1.633zm13.123 0h.917l.932-3.944h.014l1.04 3.944h.924l1.012-3.944h.014l.96 3.944h.919l-1.423-5.157h-.918l-1.033 3.944h-.014l-1.056-3.944h-.93zm18.025-.614a1.44 1.44 0 0 1-.71-.166 1.4 1.4 0 0 1-.488-.444 2 2 0 0 1-.277-.633 2.9 2.9 0 0 1 0-1.443q.09-.355.277-.633.19-.278.488-.444a1.44 1.44 0 0 1 .71-.166q.414 0 .712.166.3.166.489.444.187.278.276.633.093.352.092.722 0 .368-.092.72a2 2 0 0 1-.276.634 1.4 1.4 0 0 1-.49.444c-.2.11-.434.166-.71.166m0 .738q.577 0 1.036-.218a2.3 2.3 0 0 0 .777-.585q.319-.368.487-.86a3.1 3.1 0 0 0 .17-1.04q0-.556-.17-1.047a2.6 2.6 0 0 0-.487-.86 2.3 2.3 0 0 0-.777-.58 2.4 2.4 0 0 0-1.036-.213q-.577 0-1.037.213a2.3 2.3 0 0 0-.776.58q-.316.37-.487.86-.17.492-.17 1.048 0 .55.17 1.04.17.491.487.859a2.33 2.33 0 0 0 1.813.803m12.819-2.472h1.481q.433 0 .658.206.222.206.223.617a1 1 0 0 1-.072.401.6.6 0 0 1-.199.242.7.7 0 0 1-.289.116 2 2 0 0 1-.336.028H79.18zm-.904 2.348h2.464q.851 0 1.28-.369.424-.37.424-1.025a1.5 1.5 0 0 0-.108-.61 1.3 1.3 0 0 0-.252-.39 1 1 0 0 0-.286-.213 2 2 0 0 0-.206-.088v-.014a1 1 0 0 0 .25-.072.7.7 0 0 0 .25-.184q.114-.127.19-.329.076-.201.076-.506-.001-.455.07-.826.067-.374.212-.53h-.969a.8.8 0 0 0-.118.367 4 4 0 0 0-.018.39q0 .354-.044.61a1.1 1.1 0 0 1-.159.427.67.67 0 0 1-.315.248 1.4 1.4 0 0 1-.508.08H79.18v-2.123h-.904zm13.743 0h.902v-2.347l2.298 2.347h1.112l-2.06-2.058 2.204-3.099h-1.127l-1.69 2.463-.737-.729v-1.734h-.902zm14.011-3.438q0-.297.1-.506a.9.9 0 0 1 .283-.343q.18-.135.416-.195.235-.061.508-.062.297 0 .506.07.21.069.34.177a.65.65 0 0 1 .188.247q.057.142.057.287 0 .297-.133.437a.75.75 0 0 1-.293.199 6 6 0 0 1-.638.19q-.366.09-.901.237a2 2 0 0 0-.551.226 1.3 1.3 0 0 0-.351.315 1.1 1.1 0 0 0-.184.368q-.054.195-.054.397a1.34 1.34 0 0 0 .59 1.148q.27.188.609.279.34.09.686.09.405 0 .762-.105.358-.104.629-.314.27-.209.429-.517a1.5 1.5 0 0 0 .159-.711h-.903q-.036.498-.34.704c-.304.206-.46.206-.773.206q-.159 0-.325-.032a1 1 0 0 1-.302-.108.7.7 0 0 1-.23-.206.57.57 0 0 1-.09-.325q0-.275.172-.43.168-.155.443-.235.03-.006.228-.062l.443-.118.48-.127q.237-.061.336-.09.255-.08.442-.217c.187-.137.229-.196.314-.314q.127-.176.187-.38.063-.2.062-.403a1.45 1.45 0 0 0-.177-.741 1.5 1.5 0 0 0-.466-.502 2 2 0 0 0-.657-.285 3 3 0 0 0-.751-.09q-.44-.001-.83.109a1.9 1.9 0 0 0-.68.33 1.6 1.6 0 0 0-.462.575q-.173.352-.181.828zm6.25 25.067h.312c.264 0 .505.013.505.316 0 .255-.22.294-.421.294h-.395zm-.297.852h.742c.456 0 .67-.18.67-.549 0-.347-.22-.492-.504-.522l.549-.848h-.321l-.522.826h-.316v-.826h-.298zm.64-2.362c.76 0 1.347.606 1.347 1.41 0 .785-.587 1.39-1.347 1.39-.768 0-1.356-.605-1.356-1.39 0-.804.588-1.41 1.356-1.41m0 3.041c.896 0 1.646-.706 1.646-1.632 0-.944-.75-1.65-1.646-1.65-.9 0-1.654.706-1.654 1.65 0 .926.754 1.632 1.654 1.632"/></g></svg>