<svg xmlns="http://www.w3.org/2000/svg" xml:space="preserve" viewBox="0 0 418.57 75.44"><path d="M76.72 1.54c-3.38-1.84-7.53-.44-9.27 3.12L42.62 58.12c-.58 1.15-1.08 1.94-2.4 1.94s-1.83-.79-2.4-1.94L13 4.65C11.26 1.09 7.11-.3 3.73 1.53.35 3.37-.97 7.74.77 11.29l24.25 49.48 2.76 5.62c2.41 4.93 7.18 7.99 12.45 7.99 5.26 0 10.03-3.06 12.45-7.99l2.76-5.62 24.25-49.48c1.73-3.54.4-7.91-2.97-9.75M406.17.73c-4.67-.02-8.76 2.9-10.72 6.91-6.31 12.87-24.86 51.16-24.94 51.29-.14.24-.53 1.13-1.33 1.13-.75 0-1.19-.84-1.33-1.14-6.15-12.71-18.28-37.81-24.65-50.8-2.45-5.01-6.56-7.4-11-7.4h-.01c-6.83 0-12.36 5.77-12.36 13.62v52.63c0 3.2 1.83 6.16 4.64 7.09 4.58 1.5 8.51-2.5 8.51-7.23l-.96-51.3c0-.53.64-.72.88-.26l25.33 51.27c2.35 4.91 6.43 7.84 10.95 7.84 4.51 0 8.59-2.93 10.95-7.84l25.34-51.26c.25-.48.91-.29.91.27l-.97 51.59c0 4.08 3.05 7.37 6.78 7.24 3.6-.12 6.37-3.58 6.37-7.55V14.36c.01-7.93-5.54-13.6-12.39-13.63m-94.75 62.96L283.51 8.63c-2.42-4.9-7.18-7.94-12.42-7.94-3.29 0-6.38 1.19-8.83 3.29a14.5 14.5 0 0 0-3.61 4.66l-27.77 54.8c-.03.06-.05.12-.08.17l-.04.08a7.58 7.58 0 0 0 .55 7.73c.04.06.08.11.12.17s.09.12.14.18c.5.65 1.1 1.21 1.83 1.65 2.35 1.42 5.13 1.21 7.23-.25.03-.02.06-.04.08-.06.15-.11.3-.22.44-.34.12-.1.23-.21.34-.32.05-.05.1-.09.15-.14.5-.51.93-1.1 1.27-1.78l1.03-2.18 5.81-12.18c.15-.31.45-.51.78-.51h25.66c3.43 0 6.22-2.94 6.22-6.55 0-3.62-2.79-6.55-6.22-6.55h-19.16c-.41 0-.67-.44-.52-.83l1.43-3.03 10.49-21.14.04-.09.06-.12s0 .01 0 0c.17-.35.73-1.86 1.75-2.17.56-.17 1.15-.15 1.55-.03 1.06.32 1.54 1.63 2 2.59 0 .01 0 0 0 0l25.44 52.82c1.24 2.44 3.62 3.84 6.08 3.84.78 0 1.57-.15 2.34-.44.05-.02.1-.03.14-.05.19-.08.37-.17.55-.27.07-.03.14-.06.2-.1.04-.02.07-.05.11-.07.05-.03.11-.05.16-.09.08-.05.15-.11.23-.16.07-.05.13-.09.19-.14.1-.08.2-.15.3-.23.11-.09.22-.19.33-.29.03-.03.06-.05.08-.08 2.28-2.22 2.95-5.81 1.44-8.79M95.45 45.53h46.97c.89-.01 8.16-.6 8.16-8.82C150.59 16.47 134.94 0 115.71 0 96.49 0 80.85 16.47 80.85 36.72c0 .46.03 1.74.03 1.93-.03 23.12 14.83 35.56 34.49 36.71.94.05 1.86.08 2.76.08 7.56 0 13.94-1.96 20.87-6.34.71-.44 3.48-2.29 6.31-5.94 2.25-2.9 2.45-7.25 0-9.51-3.53-3.26-7.16-1.5-10.4 1.26-5.09 4.33-9.03 7.71-19.18 7.72-9.57 0-18.62-5.46-20.77-16.37-.08-.38.14-.73.49-.73m-.52-13.55c1.31-10.6 8.6-20 20.76-20s19.86 9.21 21.08 20c.04.39-.21.76-.59.76H95.52c-.38 0-.64-.36-.59-.76m77.79 13.55h46.97c.89-.01 8.16-.6 8.16-8.82C227.85 16.47 212.2 0 192.98 0c-19.23 0-34.87 16.47-34.87 36.72 0 .46.03 1.74.03 1.93-.03 23.12 14.83 35.56 34.49 36.71.94.05 1.86.08 2.76.08 7.56 0 13.94-1.96 20.87-6.34.71-.44 3.48-2.29 6.31-5.94 2.25-2.9 2.45-7.25 0-9.51-3.53-3.26-7.16-1.5-10.4 1.26-5.09 4.33-9.03 7.71-19.18 7.72-9.57 0-18.62-5.46-20.77-16.37-.08-.38.14-.73.5-.73m-.53-13.55c1.31-10.6 8.6-20 20.76-20s19.86 9.21 21.08 20c.04.39-.21.76-.59.76h-40.67c-.37 0-.63-.36-.58-.76" style="fill:#00b336"/></svg>